{
 "cells": [
  {
   "cell_type": "code",
   "execution_count": 3,
   "id": "4c52693f-5269-4bd8-a62a-cb09077b260f",
   "metadata": {},
   "outputs": [
    {
     "name": "stdout",
     "output_type": "stream",
     "text": [
      "Loading trajectory and topology files...\n",
      "Saving full-frame trajectory to PDB file...\n",
      "Full-frame PDB trajectory successfully saved at: /scratch/wx2237/comp-lab-class/comp-lab-class-2024/Week13-QMMM/Analysis/trajectorymovies.pdb\n",
      "Loading PDB file into PyMOL...\n",
      "Generating 16 frames...\n",
      "Saved frame 1 at /scratch/wx2237/comp-lab-class/comp-lab-class-2024/Week13-QMMM/Figures/moviesfigure/dynamic_bonds_movie0001.png\n",
      "Saved frame 2 at /scratch/wx2237/comp-lab-class/comp-lab-class-2024/Week13-QMMM/Figures/moviesfigure/dynamic_bonds_movie0002.png\n",
      "Saved frame 3 at /scratch/wx2237/comp-lab-class/comp-lab-class-2024/Week13-QMMM/Figures/moviesfigure/dynamic_bonds_movie0003.png\n",
      "Saved frame 4 at /scratch/wx2237/comp-lab-class/comp-lab-class-2024/Week13-QMMM/Figures/moviesfigure/dynamic_bonds_movie0004.png\n",
      "Saved frame 5 at /scratch/wx2237/comp-lab-class/comp-lab-class-2024/Week13-QMMM/Figures/moviesfigure/dynamic_bonds_movie0005.png\n",
      "Saved frame 6 at /scratch/wx2237/comp-lab-class/comp-lab-class-2024/Week13-QMMM/Figures/moviesfigure/dynamic_bonds_movie0006.png\n",
      "Saved frame 7 at /scratch/wx2237/comp-lab-class/comp-lab-class-2024/Week13-QMMM/Figures/moviesfigure/dynamic_bonds_movie0007.png\n",
      "Saved frame 8 at /scratch/wx2237/comp-lab-class/comp-lab-class-2024/Week13-QMMM/Figures/moviesfigure/dynamic_bonds_movie0008.png\n",
      "Saved frame 9 at /scratch/wx2237/comp-lab-class/comp-lab-class-2024/Week13-QMMM/Figures/moviesfigure/dynamic_bonds_movie0009.png\n",
      "Saved frame 10 at /scratch/wx2237/comp-lab-class/comp-lab-class-2024/Week13-QMMM/Figures/moviesfigure/dynamic_bonds_movie0010.png\n",
      "Saved frame 11 at /scratch/wx2237/comp-lab-class/comp-lab-class-2024/Week13-QMMM/Figures/moviesfigure/dynamic_bonds_movie0011.png\n",
      "Saved frame 12 at /scratch/wx2237/comp-lab-class/comp-lab-class-2024/Week13-QMMM/Figures/moviesfigure/dynamic_bonds_movie0012.png\n",
      "Saved frame 13 at /scratch/wx2237/comp-lab-class/comp-lab-class-2024/Week13-QMMM/Figures/moviesfigure/dynamic_bonds_movie0013.png\n",
      "Saved frame 14 at /scratch/wx2237/comp-lab-class/comp-lab-class-2024/Week13-QMMM/Figures/moviesfigure/dynamic_bonds_movie0014.png\n",
      "Saved frame 15 at /scratch/wx2237/comp-lab-class/comp-lab-class-2024/Week13-QMMM/Figures/moviesfigure/dynamic_bonds_movie0015.png\n",
      "Saved frame 16 at /scratch/wx2237/comp-lab-class/comp-lab-class-2024/Week13-QMMM/Figures/moviesfigure/dynamic_bonds_movie0016.png\n",
      "Generating MP4 movie...\n"
     ]
    },
    {
     "name": "stderr",
     "output_type": "stream",
     "text": [
      "ffmpeg version 6.1 Copyright (c) 2000-2023 the FFmpeg developers\n",
      "  built with gcc 12.3.0 (conda-forge gcc 12.3.0-3)\n",
      "  configuration: --prefix=/home/conda/feedstock_root/build_artifacts/ffmpeg_1700971142524/_h_env_placehold_placehold_placehold_placehold_placehold_placehold_placehold_placehold_placehold_placehold_placehold_placehold_placehold_placehold_placehold_placehold_placehold_placehold_plac --cc=/home/conda/feedstock_root/build_artifacts/ffmpeg_1700971142524/_build_env/bin/x86_64-conda-linux-gnu-cc --cxx=/home/conda/feedstock_root/build_artifacts/ffmpeg_1700971142524/_build_env/bin/x86_64-conda-linux-gnu-c++ --nm=/home/conda/feedstock_root/build_artifacts/ffmpeg_1700971142524/_build_env/bin/x86_64-conda-linux-gnu-nm --ar=/home/conda/feedstock_root/build_artifacts/ffmpeg_1700971142524/_build_env/bin/x86_64-conda-linux-gnu-ar --disable-doc --disable-openssl --enable-demuxer=dash --enable-hardcoded-tables --enable-libfreetype --enable-libfontconfig --enable-libopenh264 --enable-libdav1d --enable-gnutls --enable-libmp3lame --enable-libvpx --enable-libass --enable-pthreads --enable-vaapi --enable-gpl --enable-libx264 --enable-libx265 --enable-libaom --enable-libsvtav1 --enable-libxml2 --enable-pic --enable-shared --disable-static --enable-version3 --enable-zlib --enable-libopus --pkg-config=/home/conda/feedstock_root/build_artifacts/ffmpeg_1700971142524/_build_env/bin/pkg-config\n",
      "  libavutil      58. 29.100 / 58. 29.100\n",
      "  libavcodec     60. 31.102 / 60. 31.102\n",
      "  libavformat    60. 16.100 / 60. 16.100\n",
      "  libavdevice    60.  3.100 / 60.  3.100\n",
      "  libavfilter     9. 12.100 /  9. 12.100\n",
      "  libswscale      7.  5.100 /  7.  5.100\n",
      "  libswresample   4. 12.100 /  4. 12.100\n",
      "  libpostproc    57.  3.100 / 57.  3.100\n",
      "Input #0, image2, from '/scratch/wx2237/comp-lab-class/comp-lab-class-2024/Week13-QMMM/Figures/moviesfigure/dynamic_bonds_movie%04d.png':\n",
      "  Duration: 00:00:01.60, start: 0.000000, bitrate: N/A\n",
      "  Stream #0:0: Video: png, rgba(pc, gbr/unknown/unknown), 1920x1080 [SAR 11811:11811 DAR 16:9], 10 fps, 10 tbr, 10 tbn\n",
      "Stream mapping:\n",
      "  Stream #0:0 -> #0:0 (png (native) -> h264 (libx264))\n",
      "Press [q] to stop, [?] for help\n",
      "[libx264 @ 0x564dbf3d5900] using SAR=1/1\n",
      "[libx264 @ 0x564dbf3d5900] using cpu capabilities: MMX2 SSE2Fast SSSE3 SSE4.2 AVX FMA3 BMI2 AVX2 AVX512\n",
      "[libx264 @ 0x564dbf3d5900] profile High, level 4.0, 4:2:0, 8-bit\n",
      "[libx264 @ 0x564dbf3d5900] 264 - core 164 r3095 baee400 - H.264/MPEG-4 AVC codec - Copyleft 2003-2022 - http://www.videolan.org/x264.html - options: cabac=1 ref=3 deblock=1:0:0 analyse=0x3:0x113 me=hex subme=7 psy=1 psy_rd=1.00:0.00 mixed_ref=1 me_range=16 chroma_me=1 trellis=1 8x8dct=1 cqm=0 deadzone=21,11 fast_pskip=1 chroma_qp_offset=-2 threads=6 lookahead_threads=1 sliced_threads=0 nr=0 decimate=1 interlaced=0 bluray_compat=0 constrained_intra=0 bframes=3 b_pyramid=2 b_adapt=1 b_bias=0 direct=1 weightb=1 open_gop=0 weightp=2 keyint=250 keyint_min=10 scenecut=40 intra_refresh=0 rc_lookahead=40 rc=crf mbtree=1 crf=23.0 qcomp=0.60 qpmin=0 qpmax=69 qpstep=4 ip_ratio=1.40 aq=1:1.00\n",
      "Output #0, mp4, to '/scratch/wx2237/comp-lab-class/comp-lab-class-2024/Week13-QMMM/Figures/reaction_movie.mp4':\n",
      "  Metadata:\n",
      "    encoder         : Lavf60.16.100\n",
      "  Stream #0:0: Video: h264 (avc1 / 0x31637661), yuv420p(tv, progressive), 1920x1080 [SAR 1:1 DAR 16:9], q=2-31, 10 fps, 10240 tbn\n",
      "    Metadata:\n",
      "      encoder         : Lavc60.31.102 libx264\n",
      "    Side data:\n",
      "      cpb: bitrate max/min/avg: 0/0/0 buffer size: 0 vbv_delay: N/A\n",
      "[out#0/mp4 @ 0x564dbf3d3ac0] video:450kB audio:0kB subtitle:0kB other streams:0kB global headers:0kB muxing overhead: 0.230586%\n",
      "frame=   16 fps=0.0 q=-1.0 Lsize=     451kB time=00:00:01.30 bitrate=2840.8kbits/s speed=2.64x    \n",
      "[libx264 @ 0x564dbf3d5900] frame I:1     Avg QP: 8.17  size: 47680\n",
      "[libx264 @ 0x564dbf3d5900] frame P:4     Avg QP:18.74  size: 31514\n",
      "[libx264 @ 0x564dbf3d5900] frame B:11    Avg QP:22.59  size: 26013\n",
      "[libx264 @ 0x564dbf3d5900] consecutive B-frames:  6.2%  0.0% 18.8% 75.0%\n",
      "[libx264 @ 0x564dbf3d5900] mb I  I16..4: 78.1% 13.9%  8.0%\n",
      "[libx264 @ 0x564dbf3d5900] mb P  I16..4:  0.2%  1.5%  2.4%  P16..4:  1.0%  2.0%  3.4%  0.0%  0.0%    skip:89.5%\n",
      "[libx264 @ 0x564dbf3d5900] mb B  I16..4:  0.1%  0.1%  1.9%  B16..8:  2.5%  2.0%  3.7%  direct: 0.2%  skip:89.6%  L0:50.9% L1:37.7% BI:11.5%\n",
      "[libx264 @ 0x564dbf3d5900] 8x8 transform intra:15.0% inter:9.7%\n",
      "[libx264 @ 0x564dbf3d5900] coded y,uvDC,uvAC intra: 22.5% 14.5% 13.9% inter: 4.4% 3.8% 2.8%\n",
      "[libx264 @ 0x564dbf3d5900] i16 v,h,dc,p: 97%  1%  2%  0%\n",
      "[libx264 @ 0x564dbf3d5900] i8 v,h,dc,ddl,ddr,vr,hd,vl,hu: 31%  5% 63%  0%  0%  0%  0%  0%  0%\n",
      "[libx264 @ 0x564dbf3d5900] i4 v,h,dc,ddl,ddr,vr,hd,vl,hu: 29% 21% 16%  4%  6%  7%  6%  5%  6%\n",
      "[libx264 @ 0x564dbf3d5900] i8c dc,h,v,p: 91%  4%  4%  2%\n",
      "[libx264 @ 0x564dbf3d5900] Weighted P-Frames: Y:0.0% UV:0.0%\n",
      "[libx264 @ 0x564dbf3d5900] ref P L0: 50.7%  7.6% 23.5% 18.2%\n",
      "[libx264 @ 0x564dbf3d5900] ref B L0: 69.0% 23.9%  7.1%\n",
      "[libx264 @ 0x564dbf3d5900] ref B L1: 86.1% 13.9%\n",
      "[libx264 @ 0x564dbf3d5900] kb/s:2299.38\n",
      "ffmpeg version 6.1 Copyright (c) 2000-2023 the FFmpeg developers\n",
      "  built with gcc 12.3.0 (conda-forge gcc 12.3.0-3)\n",
      "  configuration: --prefix=/home/conda/feedstock_root/build_artifacts/ffmpeg_1700971142524/_h_env_placehold_placehold_placehold_placehold_placehold_placehold_placehold_placehold_placehold_placehold_placehold_placehold_placehold_placehold_placehold_placehold_placehold_placehold_plac --cc=/home/conda/feedstock_root/build_artifacts/ffmpeg_1700971142524/_build_env/bin/x86_64-conda-linux-gnu-cc --cxx=/home/conda/feedstock_root/build_artifacts/ffmpeg_1700971142524/_build_env/bin/x86_64-conda-linux-gnu-c++ --nm=/home/conda/feedstock_root/build_artifacts/ffmpeg_1700971142524/_build_env/bin/x86_64-conda-linux-gnu-nm --ar=/home/conda/feedstock_root/build_artifacts/ffmpeg_1700971142524/_build_env/bin/x86_64-conda-linux-gnu-ar --disable-doc --disable-openssl --enable-demuxer=dash --enable-hardcoded-tables --enable-libfreetype --enable-libfontconfig --enable-libopenh264 --enable-libdav1d --enable-gnutls --enable-libmp3lame --enable-libvpx --enable-libass --enable-pthreads --enable-vaapi --enable-gpl --enable-libx264 --enable-libx265 --enable-libaom --enable-libsvtav1 --enable-libxml2 --enable-pic --enable-shared --disable-static --enable-version3 --enable-zlib --enable-libopus --pkg-config=/home/conda/feedstock_root/build_artifacts/ffmpeg_1700971142524/_build_env/bin/pkg-config\n",
      "  libavutil      58. 29.100 / 58. 29.100\n",
      "  libavcodec     60. 31.102 / 60. 31.102\n",
      "  libavformat    60. 16.100 / 60. 16.100\n",
      "  libavdevice    60.  3.100 / 60.  3.100\n",
      "  libavfilter     9. 12.100 /  9. 12.100\n",
      "  libswscale      7.  5.100 /  7.  5.100\n",
      "  libswresample   4. 12.100 /  4. 12.100\n",
      "  libpostproc    57.  3.100 / 57.  3.100\n",
      "Input #0, image2, from '/scratch/wx2237/comp-lab-class/comp-lab-class-2024/Week13-QMMM/Figures/moviesfigure/dynamic_bonds_movie%04d.png':\n",
      "  Duration: 00:00:01.60, start: 0.000000, bitrate: N/A\n",
      "  Stream #0:0: Video: png, rgba(pc, gbr/unknown/unknown), 1920x1080 [SAR 11811:11811 DAR 16:9], 10 fps, 10 tbr, 10 tbn\n",
      "Stream mapping:\n",
      "  Stream #0:0 -> #0:0 (png (native) -> gif (native))\n",
      "Press [q] to stop, [?] for help\n",
      "Output #0, gif, to '/scratch/wx2237/comp-lab-class/comp-lab-class-2024/Week13-QMMM/Figures/reaction_movie.gif':\n",
      "  Metadata:\n",
      "    encoder         : Lavf60.16.100\n",
      "  Stream #0:0: Video: gif, bgr8(pc, gbr/unknown/unknown, progressive), 800x450 [SAR 1:1 DAR 16:9], q=2-31, 200 kb/s, 10 fps, 100 tbn\n",
      "    Metadata:\n",
      "      encoder         : Lavc60.31.102 gif\n",
      "frame=    0 fps=0.0 q=-0.0 size=       0kB time=00:00:00.00 bitrate=N/A speed=   0x    \r"
     ]
    },
    {
     "name": "stdout",
     "output_type": "stream",
     "text": [
      "Movie saved at: /scratch/wx2237/comp-lab-class/comp-lab-class-2024/Week13-QMMM/Figures/reaction_movie.mp4\n",
      "Generating GIF animation...\n",
      "GIF animation saved at: /scratch/wx2237/comp-lab-class/comp-lab-class-2024/Week13-QMMM/Figures/reaction_movie.gif\n"
     ]
    },
    {
     "name": "stderr",
     "output_type": "stream",
     "text": [
      "[out#0/gif @ 0x55c45371fa80] video:308kB audio:0kB subtitle:0kB other streams:0kB global headers:0kB muxing overhead: 0.006334%\n",
      "frame=   16 fps=0.0 q=-0.0 Lsize=     308kB time=00:00:01.50 bitrate=1684.3kbits/s speed=4.52x    \n"
     ]
    }
   ],
   "source": [
    "import os\n",
    "import mdtraj as md\n",
    "from pymol import cmd\n",
    "\n",
    "# 文件路径配置\n",
    "trajectory_file = \"/scratch/wx2237/comp-lab-class/comp-lab-class-2024/Week13-QMMM/Outputs/metad1_initmonitor/METADYN-pos-00.xyz.gz\"\n",
    "topology_file = \"/scratch/wx2237/comp-lab-class/comp-lab-class-2024/Week13-QMMM/Outputs/metad1_initmonitor/complex_LJ_mod.prmtop\"\n",
    "pdb_movies_file = \"/scratch/wx2237/comp-lab-class/comp-lab-class-2024/Week13-QMMM/Analysis/trajectorymovies.pdb\"\n",
    "output_dir = \"/scratch/wx2237/comp-lab-class/comp-lab-class-2024/Week13-QMMM/Figures\"\n",
    "frame_dir = os.path.join(output_dir, \"moviesfigure\")  # 存储每帧图片的目录\n",
    "movie_file = os.path.join(output_dir, \"reaction_movie.mp4\")  # 生成的MP4电影文件\n",
    "gif_file = os.path.join(output_dir, \"reaction_movie.gif\")  # 生成的GIF文件\n",
    "\n",
    "# 确保输出目录存在\n",
    "os.makedirs(frame_dir, exist_ok=True)\n",
    "os.makedirs(output_dir, exist_ok=True)\n",
    "\n",
    "# 重新生成未抽帧的 PDB 文件\n",
    "try:\n",
    "    print(\"Loading trajectory and topology files...\")\n",
    "    traj = md.load(trajectory_file, top=topology_file)\n",
    "    print(\"Saving full-frame trajectory to PDB file...\")\n",
    "    traj.save_pdb(pdb_movies_file)\n",
    "    print(f\"Full-frame PDB trajectory successfully saved at: {pdb_movies_file}\")\n",
    "except Exception as e:\n",
    "    print(f\"Error while generating full-frame PDB: {e}\")\n",
    "\n",
    "# 使用 PyMOL 生成每帧图像\n",
    "try:\n",
    "    print(\"Loading PDB file into PyMOL...\")\n",
    "    cmd.reinitialize()\n",
    "    cmd.load(pdb_movies_file, \"traj\")\n",
    "\n",
    "    # 设置显示样式\n",
    "    cmd.hide(\"everything\")\n",
    "    cmd.show(\"cartoon\", \"all\")\n",
    "    cmd.select(\"ligand\", \"resname CHA\")\n",
    "    cmd.select(\"nearby\", \"byres (ligand around 3)\")\n",
    "    cmd.show(\"sticks\", \"ligand or nearby\")\n",
    "    cmd.color(\"cyan\", \"ligand and elem C\")\n",
    "    cmd.color(\"magenta\", \"nearby and elem C\")\n",
    "    cmd.color(\"red\", \"elem O\")\n",
    "    cmd.color(\"blue\", \"elem N\")\n",
    "    cmd.color(\"yellow\", \"elem S\")\n",
    "    cmd.color(\"orange\", \"elem P\")\n",
    "\n",
    "    # 放大并居中到配体及其附近残基\n",
    "    cmd.center(\"ligand or nearby\")  # 确保视图中心在配体和附近残基\n",
    "    cmd.zoom(\"ligand or nearby\", buffer=5)  # 放大视图，缓冲范围设置为 5 Å\n",
    "    cmd.bg_color(\"white\")\n",
    "\n",
    "    # 逐帧生成图片\n",
    "    frame_count = cmd.count_states(\"traj\")\n",
    "    print(f\"Generating {frame_count} frames...\")\n",
    "    for frame in range(1, frame_count + 1):\n",
    "        cmd.frame(frame)\n",
    "        cmd.ray(1920, 1080)  # 设置分辨率为 1920x1080\n",
    "        frame_path = os.path.join(frame_dir, f\"dynamic_bonds_movie{frame:04d}.png\")\n",
    "        cmd.png(frame_path, dpi=300)\n",
    "        print(f\"Saved frame {frame} at {frame_path}\")\n",
    "\n",
    "except Exception as e:\n",
    "    print(f\"Error generating frames: {e}\")\n",
    "\n",
    "# 使用 ffmpeg 生成 MP4 电影\n",
    "try:\n",
    "    print(\"Generating MP4 movie...\")\n",
    "    os.system(f\"ffmpeg -framerate 10 -i {frame_dir}/dynamic_bonds_movie%04d.png -c:v libx264 -pix_fmt yuv420p {movie_file}\")\n",
    "    print(f\"Movie saved at: {movie_file}\")\n",
    "except Exception as e:\n",
    "    print(f\"Error generating MP4 movie: {e}\")\n",
    "\n",
    "# 使用 ffmpeg 生成 GIF 动画\n",
    "try:\n",
    "    print(\"Generating GIF animation...\")\n",
    "    os.system(f\"ffmpeg -framerate 10 -i {frame_dir}/dynamic_bonds_movie%04d.png -vf \\\"scale=800:-1:flags=lanczos\\\" {gif_file}\")\n",
    "    print(f\"GIF animation saved at: {gif_file}\")\n",
    "except Exception as e:\n",
    "    print(f\"Error generating GIF animation: {e}\")"
   ]
  }
 ],
 "metadata": {
  "kernelspec": {
   "display_name": "Python (myenv)",
   "language": "python",
   "name": "myenv"
  },
  "language_info": {
   "codemirror_mode": {
    "name": "ipython",
    "version": 3
   },
   "file_extension": ".py",
   "mimetype": "text/x-python",
   "name": "python",
   "nbconvert_exporter": "python",
   "pygments_lexer": "ipython3",
   "version": "3.9.18"
  }
 },
 "nbformat": 4,
 "nbformat_minor": 5
}
